# xmcd
# 
# Track frame offsets:
#     150
#     20966
#     56118
#     83789
#     91781
#     103791
#     134512
#     152914
#     172332
#     188555
#     217782
#     240124
#     259144
#     290964
#     310019
# 
# Disc length: 4377
# 
# Revision: 0
# Processed by: cddbd v1.5.2PL0 Copyright (c) Steve Scherf et al.
# Submitted via: fre:ac v1.0.31
# 
DISCID=d411170f
DTITLE=Wagner - Parsifal - Parsifal - CD4
DYEAR=1962
DGENRE=Opera
TTITLE0=Dritter Aufzug - Orchesterspiel
TTITLE1=Dritter Aufzug - Von dorther kam das Stöhnen
TTITLE2=Dritter Aufzug - Heil dir, mein Gast!
TTITLE3=Dritter Aufzug - Heil mir, dass ich dich wiederfinde!
TTITLE4=Dritter Aufzug - Zu ihm, des tiefe Klagen ich törig staunend einst vernahm
TTITLE5=Dritter Aufzug - O Herr! War es ein Fluch
TTITLE6=Dritter Aufzug - Nicht so!
TTITLE7=Dritter Aufzug - Gesegnet sei, du Reiner, durch das Reine!
TTITLE8=Dritter Aufzug - Wie dünkt mich doch die Aue heut so schön! [Karfreitagszauber]
TTITLE9=Dritter Aufzug - Du siehst, das ist nicht so
TTITLE10=Dritter Aufzug - Mittag - Verwandlungsmusik
TTITLE11=Dritter Aufzug - Geleiten wir im bergenden Schrein
TTITLE12=Dritter Aufzug - Ja, Wehe! Wehe! Weh' über mich! - Enthüllet Gral!
TTITLE13=Dritter Aufzug - Nur eine Waffe taugy
TTITLE14=Dritter Aufzug - Höchsten Heiles Wunder!
EXTD=
EXTT0=
EXTT1=
EXTT2=
EXTT3=
EXTT4=
EXTT5=
EXTT6=
EXTT7=
EXTT8=
EXTT9=
EXTT10=
EXTT11=
EXTT12=
EXTT13=
EXTT14=
PLAYORDER=
